<svg xmlns="http://www.w3.org/2000/svg" width="64" height="64" fill="none" viewBox="0 0 64 64" role="img" aria-labelledby="favicon-title">
  <title id="favicon-title">Medellin Rewards</title>
  <defs>
    <linearGradient id="gold" x1="18" x2="46" y1="14" y2="47" gradientUnits="userSpaceOnUse">
      <stop stop-color="#fff2a8"/>
      <stop offset=".2" stop-color="#f6d65e"/>
      <stop offset=".44" stop-color="#b77a13"/>
      <stop offset=".68" stop-color="#f8df78"/>
      <stop offset="1" stop-color="#8e5a0b"/>
    </linearGradient>
    <radialGradient id="black-badge" cx="0" cy="0" r="1" gradientTransform="matrix(0 27 -27 0 32 31.5)" gradientUnits="userSpaceOnUse">
      <stop stop-color="#1c1c1a"/>
      <stop offset=".58" stop-color="#10100f"/>
      <stop offset="1" stop-color="#050505"/>
    </radialGradient>
  </defs>
  <circle cx="32" cy="32" r="27" fill="url(#black-badge)"/>
  <circle cx="32" cy="32" r="26" stroke="#030303" stroke-width="3"/>
  <circle cx="32" cy="32" r="24.4" stroke="#f3d25c" stroke-width="1"/>
  <circle cx="32" cy="32" r="23.6" stroke="#8d5a10" stroke-width=".6"/>
  <circle cx="32" cy="32" r="22.8" stroke="#030303" stroke-width="1.2"/>
  <path fill="url(#gold)" stroke="#231b0c" stroke-width=".3" d="M21 20h4l7 9.4 7-9.4h4c.9 0 1.8-.2 2.5-.6v.3c-1.8.5-2.7 1.2-2.7 2.3v10h-3.7v-8.7l-6.7 9.6h-1l-6.7-9.6V32H21V22c0-1.1-.9-1.8-2.7-2.3v-.3c.7.4 1.5.6 2.7.6Z"/>
  <path fill="url(#gold)" stroke="#231b0c" stroke-width=".25" d="m10 41 9.2-7.3 1.3 1.8 1.6-3.4 4.7 5.2 2-1.8 3.9 4.7-5.2-2.7-.8 1.8-3.1-3.2-2.3 2.6-1-4-1 2.6-.8-1.7L10 41Zm21.8-.8 4-4.7 2 1.8 4.7-5.2 1.6 3.4 1.2-1.8L54.5 41 46 35.6l-.8 1.7-1-2.6-1 4-2.3-2.6-3.1 3.2-.8-1.8-5.2 2.7Z"/>
</svg>
